<?xml version="1.0" encoding="UTF-8" standalone="no"?>
<!DOCTYPE score-partwise PUBLIC "-//Recordare//DTD MusicXML 2.0 Partwise//EN" "http://www.musicxml.org/dtds/partwise.dtd">
<score-partwise version="2.0">
  <movement-number/>
  <movement-title>Jingle Bells</movement-title>
  <identification>
    <creator type="composer"/>
    <creator type="poet"/>
    <rights/>
    <encoding>
      <software>NWC2MusicXML</software>
      <encoding-date>2016-05-28</encoding-date>
    </encoding>
  </identification>
  <part-list>
    <score-part id="P1">
      <part-name>Piano</part-name>
      <midi-instrument id="P1">
        <midi-channel>1</midi-channel>
        <midi-program>2</midi-program>
      </midi-instrument>
    </score-part>
    <score-part id="P2">
      <part-name/>
      <midi-instrument id="P2">
        <midi-channel>2</midi-channel>
        <midi-program>2</midi-program>
      </midi-instrument>
    </score-part>
  </part-list>
  <part id="P1">
    <measure number="1">
      <attributes>
        <divisions>480</divisions>
        <key>
          <fifths>-1</fifths>
          <mode>major</mode>
        </key>
        <time>
          <beats>4</beats>
          <beat-type>4</beat-type>
        </time>
        <clef>
          <sign>G</sign>
          <line>2</line>
        </clef>
      </attributes>
      <direction>
        <direction-type>
          <words>Lively</words>
        </direction-type>
      </direction>
      <note>
        <pitch>
          <step>A</step>
          <octave>4</octave>
        </pitch>
        <duration>480</duration>
        <voice>1</voice>
        <type>quarter</type>
        <staff>1</staff>
        <notations>
          <articulations>
            <staccato/>
          </articulations>
        </notations>
        <lyric>
          <syllabic>begin</syllabic>
          <text>Jin</text>
        </lyric>
      </note>
      <note>
        <pitch>
          <step>A</step>
          <octave>4</octave>
        </pitch>
        <duration>480</duration>
        <voice>1</voice>
        <type>quarter</type>
        <staff>1</staff>
        <notations>
          <articulations>
            <staccato/>
          </articulations>
        </notations>
        <lyric>
          <syllabic>end</syllabic>
          <text>gle</text>
        </lyric>
      </note>
      <note>
        <pitch>
          <step>A</step>
          <octave>4</octave>
        </pitch>
        <duration>480</duration>
        <voice>1</voice>
        <type>quarter</type>
        <staff>1</staff>
        <lyric>
          <syllabic>single</syllabic>
          <text>bells,</text>
        </lyric>
      </note>
      <note>
        <rest/>
        <duration>480</duration>
        <voice>1</voice>
        <type>quarter</type>
        <staff>1</staff>
      </note>
    </measure>
    <measure number="2">
      <note>
        <pitch>
          <step>A</step>
          <octave>4</octave>
        </pitch>
        <duration>480</duration>
        <voice>1</voice>
        <type>quarter</type>
        <staff>1</staff>
        <notations>
          <articulations>
            <staccato/>
          </articulations>
        </notations>
        <lyric>
          <syllabic>begin</syllabic>
          <text>jin</text>
        </lyric>
      </note>
      <note>
        <pitch>
          <step>A</step>
          <octave>4</octave>
        </pitch>
        <duration>480</duration>
        <voice>1</voice>
        <type>quarter</type>
        <staff>1</staff>
        <notations>
          <articulations>
            <staccato/>
          </articulations>
        </notations>
        <lyric>
          <syllabic>end</syllabic>
          <text>gle</text>
        </lyric>
      </note>
      <note>
        <pitch>
          <step>A</step>
          <octave>4</octave>
        </pitch>
        <duration>480</duration>
        <voice>1</voice>
        <type>quarter</type>
        <staff>1</staff>
        <lyric>
          <syllabic>single</syllabic>
          <text>bells,</text>
        </lyric>
      </note>
      <note>
        <rest/>
        <duration>480</duration>
        <voice>1</voice>
        <type>quarter</type>
        <staff>1</staff>
      </note>
    </measure>
    <measure number="3">
      <note>
        <pitch>
          <step>A</step>
          <octave>4</octave>
        </pitch>
        <duration>480</duration>
        <voice>1</voice>
        <type>quarter</type>
        <staff>1</staff>
        <lyric>
          <syllabic>begin</syllabic>
          <text>jin</text>
        </lyric>
      </note>
      <note>
        <pitch>
          <step>C</step>
          <octave>5</octave>
        </pitch>
        <duration>480</duration>
        <voice>1</voice>
        <type>quarter</type>
        <staff>1</staff>
        <lyric>
          <syllabic>end</syllabic>
          <text>gle</text>
        </lyric>
      </note>
      <note>
        <pitch>
          <step>F</step>
          <octave>4</octave>
        </pitch>
        <duration>720</duration>
        <voice>1</voice>
        <type>quarter</type>
        <dot/>
        <staff>1</staff>
        <lyric>
          <syllabic>single</syllabic>
          <text>all</text>
        </lyric>
      </note>
      <note>
        <pitch>
          <step>G</step>
          <octave>4</octave>
        </pitch>
        <duration>240</duration>
        <voice>1</voice>
        <type>eighth</type>
        <staff>1</staff>
        <lyric>
          <syllabic>single</syllabic>
          <text>the</text>
        </lyric>
      </note>
    </measure>
    <measure number="4">
      <note>
        <pitch>
          <step>A</step>
          <octave>4</octave>
        </pitch>
        <duration>1440</duration>
        <voice>1</voice>
        <type>half</type>
        <dot/>
        <staff>1</staff>
        <lyric>
          <syllabic>single</syllabic>
          <text>way,</text>
          <end-line/>
        </lyric>
      </note>
      <note>
        <rest/>
        <duration>480</duration>
        <voice>1</voice>
        <type>quarter</type>
        <staff>1</staff>
      </note>
    </measure>
    <measure number="5">
      <note>
        <pitch>
          <step>B</step>
          <alter>-1</alter>
          <octave>4</octave>
        </pitch>
        <duration>480</duration>
        <voice>1</voice>
        <type>quarter</type>
        <staff>1</staff>
        <notations>
          <articulations>
            <staccato/>
          </articulations>
        </notations>
        <lyric>
          <syllabic>single</syllabic>
          <text>Oh,</text>
        </lyric>
      </note>
      <note>
        <pitch>
          <step>B</step>
          <alter>-1</alter>
          <octave>4</octave>
        </pitch>
        <duration>480</duration>
        <voice>1</voice>
        <type>quarter</type>
        <staff>1</staff>
        <notations>
          <articulations>
            <staccato/>
          </articulations>
        </notations>
        <lyric>
          <syllabic>single</syllabic>
          <text>what</text>
        </lyric>
      </note>
      <note>
        <pitch>
          <step>B</step>
          <alter>-1</alter>
          <octave>4</octave>
        </pitch>
        <duration>720</duration>
        <voice>1</voice>
        <type>quarter</type>
        <dot/>
        <staff>1</staff>
        <lyric>
          <syllabic>single</syllabic>
          <text>fun</text>
        </lyric>
      </note>
      <note>
        <pitch>
          <step>B</step>
          <alter>-1</alter>
          <octave>4</octave>
        </pitch>
        <duration>240</duration>
        <voice>1</voice>
        <type>eighth</type>
        <staff>1</staff>
        <notations>
          <articulations>
            <staccato/>
          </articulations>
        </notations>
        <lyric>
          <syllabic>single</syllabic>
          <text>it</text>
        </lyric>
      </note>
    </measure>
    <measure number="6">
      <note>
        <pitch>
          <step>B</step>
          <alter>-1</alter>
          <octave>4</octave>
        </pitch>
        <duration>480</duration>
        <voice>1</voice>
        <type>quarter</type>
        <staff>1</staff>
        <notations>
          <articulations>
            <staccato/>
          </articulations>
        </notations>
        <lyric>
          <syllabic>single</syllabic>
          <text>is</text>
        </lyric>
      </note>
      <note>
        <pitch>
          <step>A</step>
          <octave>4</octave>
        </pitch>
        <duration>480</duration>
        <voice>1</voice>
        <type>quarter</type>
        <staff>1</staff>
        <notations>
          <articulations>
            <staccato/>
          </articulations>
        </notations>
        <lyric>
          <syllabic>single</syllabic>
          <text>to</text>
        </lyric>
      </note>
      <note>
        <pitch>
          <step>A</step>
          <octave>4</octave>
        </pitch>
        <duration>480</duration>
        <voice>1</voice>
        <type>quarter</type>
        <staff>1</staff>
        <lyric>
          <syllabic>single</syllabic>
          <text>ride</text>
        </lyric>
      </note>
      <note>
        <pitch>
          <step>A</step>
          <octave>4</octave>
        </pitch>
        <duration>240</duration>
        <voice>1</voice>
        <type>eighth</type>
        <stem>up</stem>
        <staff>1</staff>
        <beam number="1">begin</beam>
        <notations>
          <articulations>
            <staccato/>
          </articulations>
        </notations>
        <lyric>
          <syllabic>single</syllabic>
          <text>in</text>
        </lyric>
      </note>
      <note>
        <pitch>
          <step>A</step>
          <octave>4</octave>
        </pitch>
        <duration>240</duration>
        <voice>1</voice>
        <type>eighth</type>
        <stem>up</stem>
        <staff>1</staff>
        <beam number="1">end</beam>
        <notations>
          <articulations>
            <staccato/>
          </articulations>
        </notations>
        <lyric>
          <syllabic>single</syllabic>
          <text>a</text>
        </lyric>
      </note>
    </measure>
    <measure number="7">
      <barline location="left">
        <ending number="1" type="start"/>
      </barline>
      <note>
        <pitch>
          <step>A</step>
          <octave>4</octave>
        </pitch>
        <duration>480</duration>
        <voice>1</voice>
        <type>quarter</type>
        <staff>1</staff>
        <notations>
          <articulations>
            <staccato/>
          </articulations>
        </notations>
        <lyric>
          <syllabic>begin</syllabic>
          <text>one</text>
        </lyric>
      </note>
      <note>
        <pitch>
          <step>G</step>
          <octave>4</octave>
        </pitch>
        <duration>480</duration>
        <voice>1</voice>
        <type>quarter</type>
        <staff>1</staff>
        <notations>
          <articulations>
            <staccato/>
          </articulations>
        </notations>
        <lyric>
          <syllabic>end</syllabic>
          <text>horse</text>
        </lyric>
      </note>
      <note>
        <pitch>
          <step>G</step>
          <octave>4</octave>
        </pitch>
        <duration>480</duration>
        <voice>1</voice>
        <type>quarter</type>
        <staff>1</staff>
        <notations>
          <articulations>
            <staccato/>
          </articulations>
        </notations>
        <lyric>
          <syllabic>begin</syllabic>
          <text>o</text>
        </lyric>
      </note>
      <note>
        <pitch>
          <step>A</step>
          <octave>4</octave>
        </pitch>
        <duration>480</duration>
        <voice>1</voice>
        <type>quarter</type>
        <staff>1</staff>
        <notations>
          <articulations>
            <staccato/>
          </articulations>
        </notations>
        <lyric>
          <syllabic>end</syllabic>
          <text>pen</text>
        </lyric>
      </note>
    </measure>
    <measure number="8">
      <note>
        <pitch>
          <step>G</step>
          <octave>4</octave>
        </pitch>
        <duration>960</duration>
        <voice>1</voice>
        <type>half</type>
        <stem>up</stem>
        <staff>1</staff>
        <notations>
          <slur number="1" type="start"/>
        </notations>
        <lyric>
          <syllabic>single</syllabic>
          <text>sleigh.</text>
          <end-line/>
        </lyric>
      </note>
      <note>
        <pitch>
          <step>C</step>
          <octave>5</octave>
        </pitch>
        <duration>960</duration>
        <voice>1</voice>
        <type>half</type>
        <stem>up</stem>
        <staff>1</staff>
        <notations>
          <slur number="1" type="stop"/>
        </notations>
      </note>
      <barline location="right">
        <bar-style>light-heavy</bar-style>
        <ending number="1" type="stop"/>
        <repeat direction="backward"/>
      </barline>
    </measure>
    <measure number="9">
      <barline location="left">
        <ending number="2" type="start"/>
      </barline>
      <note>
        <pitch>
          <step>C</step>
          <octave>5</octave>
        </pitch>
        <duration>480</duration>
        <voice>1</voice>
        <type>quarter</type>
        <staff>1</staff>
        <notations>
          <articulations>
            <staccato/>
          </articulations>
        </notations>
        <lyric>
          <syllabic>begin</syllabic>
          <text>one</text>
        </lyric>
      </note>
      <note>
        <pitch>
          <step>C</step>
          <octave>5</octave>
        </pitch>
        <duration>480</duration>
        <voice>1</voice>
        <type>quarter</type>
        <staff>1</staff>
        <notations>
          <articulations>
            <staccato/>
          </articulations>
        </notations>
        <lyric>
          <syllabic>end</syllabic>
          <text>horse</text>
        </lyric>
      </note>
      <note>
        <pitch>
          <step>B</step>
          <alter>-1</alter>
          <octave>4</octave>
        </pitch>
        <duration>480</duration>
        <voice>1</voice>
        <type>quarter</type>
        <staff>1</staff>
        <notations>
          <articulations>
            <staccato/>
          </articulations>
        </notations>
        <lyric>
          <syllabic>begin</syllabic>
          <text>o</text>
        </lyric>
      </note>
      <note>
        <pitch>
          <step>G</step>
          <octave>4</octave>
        </pitch>
        <duration>480</duration>
        <voice>1</voice>
        <type>quarter</type>
        <staff>1</staff>
        <notations>
          <articulations>
            <staccato/>
          </articulations>
        </notations>
        <lyric>
          <syllabic>end</syllabic>
          <text>pen</text>
        </lyric>
      </note>
      <barline location="right">
        <ending number="2" type="discontinue"/>
      </barline>
    </measure>
    <measure number="10">
      <note>
        <pitch>
          <step>F</step>
          <octave>4</octave>
        </pitch>
        <duration>1440</duration>
        <voice>1</voice>
        <type>half</type>
        <dot/>
        <staff>1</staff>
        <lyric>
          <syllabic>single</syllabic>
          <text>sleigh.</text>
        </lyric>
      </note>
      <note>
        <rest/>
        <duration>480</duration>
        <voice>1</voice>
        <type>quarter</type>
        <staff>1</staff>
      </note>
      <barline location="right">
        <bar-style>light-heavy</bar-style>
      </barline>
    </measure>
  </part>
  <part id="P2">
    <measure number="1">
      <attributes>
        <divisions>480</divisions>
        <key>
          <fifths>-1</fifths>
          <mode>major</mode>
        </key>
        <time>
          <beats>4</beats>
          <beat-type>4</beat-type>
        </time>
        <clef>
          <sign>F</sign>
          <line>4</line>
        </clef>
      </attributes>
      <note>
        <pitch>
          <step>F</step>
          <octave>3</octave>
        </pitch>
        <duration>1920</duration>
        <voice>1</voice>
        <type>whole</type>
        <staff>1</staff>
      </note>
      <note>
        <chord/>
        <pitch>
          <step>A</step>
          <octave>3</octave>
        </pitch>
        <duration>1920</duration>
        <voice>1</voice>
        <type>whole</type>
        <staff>1</staff>
      </note>
      <note>
        <chord/>
        <pitch>
          <step>C</step>
          <octave>4</octave>
        </pitch>
        <duration>1920</duration>
        <voice>1</voice>
        <type>whole</type>
        <staff>1</staff>
      </note>
    </measure>
    <measure number="2">
      <note>
        <pitch>
          <step>F</step>
          <octave>3</octave>
        </pitch>
        <duration>1920</duration>
        <voice>1</voice>
        <type>whole</type>
        <staff>1</staff>
      </note>
      <note>
        <chord/>
        <pitch>
          <step>A</step>
          <octave>3</octave>
        </pitch>
        <duration>1920</duration>
        <voice>1</voice>
        <type>whole</type>
        <staff>1</staff>
      </note>
      <note>
        <chord/>
        <pitch>
          <step>C</step>
          <octave>4</octave>
        </pitch>
        <duration>1920</duration>
        <voice>1</voice>
        <type>whole</type>
        <staff>1</staff>
      </note>
    </measure>
    <measure number="3">
      <note>
        <pitch>
          <step>F</step>
          <octave>3</octave>
        </pitch>
        <duration>1920</duration>
        <voice>1</voice>
        <type>whole</type>
        <staff>1</staff>
      </note>
      <note>
        <chord/>
        <pitch>
          <step>A</step>
          <octave>3</octave>
        </pitch>
        <duration>1920</duration>
        <voice>1</voice>
        <type>whole</type>
        <staff>1</staff>
      </note>
      <note>
        <chord/>
        <pitch>
          <step>C</step>
          <octave>4</octave>
        </pitch>
        <duration>1920</duration>
        <voice>1</voice>
        <type>whole</type>
        <staff>1</staff>
      </note>
    </measure>
    <measure number="4">
      <note>
        <pitch>
          <step>F</step>
          <octave>3</octave>
        </pitch>
        <duration>480</duration>
        <voice>1</voice>
        <type>quarter</type>
        <staff>1</staff>
      </note>
      <note>
        <chord/>
        <pitch>
          <step>A</step>
          <octave>3</octave>
        </pitch>
        <duration>480</duration>
        <voice>1</voice>
        <type>quarter</type>
        <staff>1</staff>
      </note>
      <note>
        <chord/>
        <pitch>
          <step>C</step>
          <octave>4</octave>
        </pitch>
        <duration>480</duration>
        <voice>1</voice>
        <type>quarter</type>
        <staff>1</staff>
      </note>
      <note>
        <rest/>
        <duration>480</duration>
        <voice>1</voice>
        <type>quarter</type>
        <staff>1</staff>
      </note>
      <note>
        <pitch>
          <step>F</step>
          <octave>3</octave>
        </pitch>
        <duration>480</duration>
        <voice>1</voice>
        <type>quarter</type>
        <staff>1</staff>
      </note>
      <note>
        <chord/>
        <pitch>
          <step>A</step>
          <octave>3</octave>
        </pitch>
        <duration>480</duration>
        <voice>1</voice>
        <type>quarter</type>
        <staff>1</staff>
      </note>
      <note>
        <chord/>
        <pitch>
          <step>C</step>
          <octave>4</octave>
        </pitch>
        <duration>480</duration>
        <voice>1</voice>
        <type>quarter</type>
        <staff>1</staff>
      </note>
      <note>
        <rest/>
        <duration>480</duration>
        <voice>1</voice>
        <type>quarter</type>
        <staff>1</staff>
      </note>
    </measure>
    <measure number="5">
      <note>
        <pitch>
          <step>F</step>
          <octave>3</octave>
        </pitch>
        <duration>1920</duration>
        <voice>1</voice>
        <type>whole</type>
        <staff>1</staff>
      </note>
      <note>
        <chord/>
        <pitch>
          <step>B</step>
          <alter>-1</alter>
          <octave>3</octave>
        </pitch>
        <duration>1920</duration>
        <voice>1</voice>
        <type>whole</type>
        <staff>1</staff>
      </note>
      <note>
        <chord/>
        <pitch>
          <step>D</step>
          <octave>4</octave>
        </pitch>
        <duration>1920</duration>
        <voice>1</voice>
        <type>whole</type>
        <staff>1</staff>
      </note>
    </measure>
    <measure number="6">
      <note>
        <pitch>
          <step>F</step>
          <octave>3</octave>
        </pitch>
        <duration>480</duration>
        <voice>1</voice>
        <type>quarter</type>
        <staff>1</staff>
      </note>
      <note>
        <chord/>
        <pitch>
          <step>A</step>
          <octave>3</octave>
        </pitch>
        <duration>480</duration>
        <voice>1</voice>
        <type>quarter</type>
        <staff>1</staff>
      </note>
      <note>
        <chord/>
        <pitch>
          <step>C</step>
          <octave>4</octave>
        </pitch>
        <duration>480</duration>
        <voice>1</voice>
        <type>quarter</type>
        <staff>1</staff>
      </note>
      <note>
        <rest/>
        <duration>480</duration>
        <voice>1</voice>
        <type>quarter</type>
        <staff>1</staff>
      </note>
      <note>
        <rest/>
        <duration>960</duration>
        <voice>1</voice>
        <type>half</type>
        <staff>1</staff>
      </note>
    </measure>
    <measure number="7">
      <barline location="left">
        <ending number="1" type="start"/>
      </barline>
      <note>
        <pitch>
          <step>G</step>
          <octave>3</octave>
        </pitch>
        <duration>960</duration>
        <voice>1</voice>
        <type>half</type>
        <staff>1</staff>
      </note>
      <note>
        <chord/>
        <pitch>
          <step>B</step>
          <alter>0</alter>
          <octave>3</octave>
        </pitch>
        <duration>960</duration>
        <voice>1</voice>
        <type>half</type>
        <accidental>natural</accidental>
        <staff>1</staff>
      </note>
      <note>
        <rest/>
        <duration>960</duration>
        <voice>1</voice>
        <type>half</type>
        <staff>1</staff>
      </note>
    </measure>
    <measure number="8">
      <note>
        <pitch>
          <step>E</step>
          <octave>3</octave>
        </pitch>
        <duration>1920</duration>
        <voice>1</voice>
        <type>whole</type>
        <staff>1</staff>
      </note>
      <note>
        <chord/>
        <pitch>
          <step>B</step>
          <alter>-1</alter>
          <octave>3</octave>
        </pitch>
        <duration>1920</duration>
        <voice>1</voice>
        <type>whole</type>
        <accidental>flat</accidental>
        <staff>1</staff>
      </note>
      <note>
        <chord/>
        <pitch>
          <step>C</step>
          <octave>4</octave>
        </pitch>
        <duration>1920</duration>
        <voice>1</voice>
        <type>whole</type>
        <staff>1</staff>
      </note>
      <barline location="right">
        <bar-style>light-heavy</bar-style>
        <ending number="1" type="stop"/>
        <repeat direction="backward"/>
      </barline>
    </measure>
    <measure number="9">
      <barline location="left">
        <ending number="2" type="start"/>
      </barline>
      <note>
        <pitch>
          <step>E</step>
          <octave>3</octave>
        </pitch>
        <duration>480</duration>
        <voice>1</voice>
        <type>quarter</type>
        <staff>1</staff>
      </note>
      <note>
        <chord/>
        <pitch>
          <step>B</step>
          <alter>-1</alter>
          <octave>3</octave>
        </pitch>
        <duration>480</duration>
        <voice>1</voice>
        <type>quarter</type>
        <staff>1</staff>
      </note>
      <note>
        <chord/>
        <pitch>
          <step>C</step>
          <octave>4</octave>
        </pitch>
        <duration>480</duration>
        <voice>1</voice>
        <type>quarter</type>
        <staff>1</staff>
      </note>
      <note>
        <rest/>
        <duration>480</duration>
        <voice>1</voice>
        <type>quarter</type>
        <staff>1</staff>
      </note>
      <note>
        <rest/>
        <duration>960</duration>
        <voice>1</voice>
        <type>half</type>
        <staff>1</staff>
      </note>
      <barline location="right">
        <ending number="2" type="discontinue"/>
      </barline>
    </measure>
    <measure number="10">
      <note>
        <pitch>
          <step>F</step>
          <octave>3</octave>
        </pitch>
        <duration>1440</duration>
        <voice>1</voice>
        <type>half</type>
        <dot/>
        <staff>1</staff>
      </note>
      <note>
        <chord/>
        <pitch>
          <step>A</step>
          <octave>3</octave>
        </pitch>
        <duration>1440</duration>
        <voice>1</voice>
        <type>half</type>
        <dot/>
        <staff>1</staff>
      </note>
      <note>
        <chord/>
        <pitch>
          <step>C</step>
          <octave>4</octave>
        </pitch>
        <duration>1440</duration>
        <voice>1</voice>
        <type>half</type>
        <dot/>
        <staff>1</staff>
      </note>
      <note>
        <rest/>
        <duration>480</duration>
        <voice>1</voice>
        <type>quarter</type>
        <staff>1</staff>
      </note>
      <barline location="right">
        <ending number="2" type="discontinue"/>
      </barline>
    </measure>
  </part>
</score-partwise>
